<svg xmlns="http://www.w3.org/2000/svg" width="50px" height="50px" viewBox="0 0 512 512" xml:space="preserve" version="1.1" xmlns:xlink="http://www.w3.org/1999/xlink" transform="matrix(-1,1.2246467991473532e-16,-1.2246467991473532e-16,-1,0,0)"><path style="fill:#874d20" d="M255.997 8.605H256c112.404 0 204.37 92.771 204.37 206.162v82.465c0 113.392-91.965 206.163-204.37 206.163h-.003c-112.404 0-204.367-92.771-204.367-206.162v-82.465c0-113.392 91.962-206.163 204.367-206.163"></path><path style="fill:#663310" d="M460.37 214.768v82.465c0 89.303-57.049 165.802-136.193 194.28l-.113-.101c-22.807-20.47-70.263-63.066-72.844-65.896-34.217-41.786-30.186-118.547 8.799-167.622 19.195-24.162 31.092-57.151 32.641-90.511 1.619-34.848-7.869-66.166-26.716-88.184-1.509-1.763-37.565-39.773-60.742-64.104a201.2 201.2 0 0 1 50.796-6.489H256c112.404-.001 204.37 92.77 204.37 206.162"></path><path d="M406.447 63.106C366.107 22.412 312.676 0 255.997 0c-56.676 0-110.106 22.412-150.446 63.106-40.32 40.674-62.525 94.536-62.525 151.661v82.466c0 57.125 22.205 110.987 62.525 151.661C145.891 489.588 199.321 512 255.997 512H256c56.676 0 110.107-22.412 150.447-63.106 40.321-40.675 62.527-94.536 62.527-151.661v-82.466c.001-57.125-22.206-110.986-62.527-151.661m45.318 234.127c0 108.932-87.82 197.557-195.765 197.557h-.003c-107.943 0-195.761-88.624-195.761-197.557v-82.466C60.235 105.834 148.054 17.21 256 17.21c107.945 0 195.765 88.624 195.765 197.557zM299.273 162.139c-.49 36.662-12.956 73.027-34.201 99.769-18.775 23.633-30.003 55.487-30.804 87.397-.829 33.013 9.518 61.366 29.137 79.833 4.325 4.071 4.531 10.879.459 15.205a10.73 10.73 0 0 1-7.834 3.384 10.7 10.7 0 0 1-7.37-2.925c-24.134-22.717-36.882-56.823-35.898-96.037.916-36.486 13.843-73.022 35.465-100.238 18.342-23.088 29.107-54.681 29.535-86.675.439-32.859-9.896-60.913-29.102-78.99-4.325-4.072-4.532-10.879-.46-15.205 4.072-4.325 10.879-4.533 15.205-.46 23.651 22.261 36.388 55.98 35.868 94.942"></path></svg>