<svg xmlns="http://www.w3.org/2000/svg" width="50px" height="50px" viewBox="0 0 297.653 297.653" xml:space="preserve"><path d="M38.167 66.826c-3.271 0-5.996 1.966-7.236 4.778-.964-3.336-3.993-5.778-7.639-5.778s-6.696 2.442-7.66 5.778c-1.24-2.812-4.205-4.778-7.475-4.778-4.418 0-8.156 3.582-8.156 8v37.363c0 9.714 7 18.017 15 21.223v106.414a8 8 0 0 0 16 0V133.411c9-3.206 15-11.509 15-21.222V74.826c-.001-4.418-3.417-8-7.834-8"/><path style="fill:#b4ebdd" d="M151.332 65.492C105.383 65.492 68 102.876 68 148.826s37.383 83.334 83.332 83.334c45.95 0 83.334-37.384 83.334-83.334s-37.384-83.334-83.334-83.334m0 150.667c-37.126 0-67.331-30.205-67.331-67.333s30.205-67.333 67.331-67.333c37.128 0 67.333 30.205 67.333 67.333s-30.205 67.333-67.333 67.333"/><path d="M151.332 49.492C96.56 49.492 52 94.053 52 148.826s44.56 99.334 99.332 99.334 99.334-44.561 99.334-99.334-44.562-99.334-99.334-99.334m0 182.668C105.383 232.16 68 194.777 68 148.826s37.383-83.334 83.332-83.334c45.95 0 83.334 37.384 83.334 83.334s-37.384 83.334-83.334 83.334"/><path style="fill:#fff" d="M151.332 97.493c-28.304 0-51.331 23.028-51.331 51.333s23.027 51.333 51.331 51.333 51.333-23.028 51.333-51.333-23.028-51.333-51.333-51.333"/><path d="M151.332 81.493c-37.126 0-67.331 30.205-67.331 67.333s30.205 67.333 67.331 67.333c37.128 0 67.333-30.205 67.333-67.333s-30.205-67.333-67.333-67.333m0 118.666c-28.304 0-51.331-23.028-51.331-51.333s23.027-51.333 51.331-51.333 51.333 23.028 51.333 51.333-23.028 51.333-51.333 51.333m146.151-69.035-16.334-75c-.869-3.993-4.764-6.688-8.839-6.252-4.064.438-7.31 3.867-7.31 7.954v182a8 8 0 0 0 16 0v-90.749l13.3-9.851c2.504-1.878 3.849-5.043 3.183-8.102"/></svg>